# Wavefront OBJ file automatically generated by Tiled2Unity

# Vertices (Count = 331)
v 0 -1 0
v -1 -1 0
v -1 0 0
v 0 0 0
v -2 -1 0
v -2 0 0
v -3 -1 0
v -3 0 0
v -4 -1 0
v -4 0 0
v -5 -1 0
v -5 0 0
v -6 -1 0
v -6 0 0
v -12 -1 0
v -13 -1 0
v -13 0 0
v -12 0 0
v -14 -1 0
v -14 0 0
v -15 -1 0
v -15 0 0
v -16 -1 0
v -16 0 0
v -17 -1 0
v -17 0 0
v -22 -1 0
v -23 -1 0
v -23 0 0
v -22 0 0
v -24 -1 0
v -24 0 0
v -25 -1 0
v -25 0 0
v -26 -1 0
v -26 0 0
v -27 -1 0
v -27 0 0
v -28 -1 0
v -28 0 0
v -29 -1 0
v -29 0 0
v 0 -2 0
v -1 -2 0
v -13 -2 0
v -14 -2 0
v -15 -2 0
v -16 -2 0
v -28 -2 0
v -29 -2 0
v 0 -3 0
v -1 -3 0
v -13 -3 0
v -14 -3 0
v -15 -3 0
v -16 -3 0
v -28 -3 0
v -29 -3 0
v 0 -4 0
v -1 -4 0
v -13 -4 0
v -14 -4 0
v -15 -4 0
v -16 -4 0
v -28 -4 0
v -29 -4 0
v 0 -5 0
v -1 -5 0
v -6 -5 0
v -7 -5 0
v -7 -4 0
v -6 -4 0
v -8 -5 0
v -8 -4 0
v -9 -5 0
v -9 -4 0
v -10 -5 0
v -10 -4 0
v -11 -5 0
v -11 -4 0
v -13 -5 0
v -14 -5 0
v -15 -5 0
v -16 -5 0
v -18 -5 0
v -19 -5 0
v -19 -4 0
v -18 -4 0
v -20 -5 0
v -20 -4 0
v -21 -5 0
v -21 -4 0
v -22 -5 0
v -22 -4 0
v -23 -5 0
v -23 -4 0
v -28 -5 0
v -29 -5 0
v 0 -6 0
v -1 -6 0
v -6 -6 0
v -7 -6 0
v -8 -6 0
v -9 -6 0
v -10 -6 0
v -11 -6 0
v -13 -6 0
v -14 -6 0
v -15 -6 0
v -16 -6 0
v -18 -6 0
v -19 -6 0
v -20 -6 0
v -21 -6 0
v -22 -6 0
v -23 -6 0
v -28 -6 0
v -29 -6 0
v 0 -7 0
v -1 -7 0
v -3 -7 0
v -4 -7 0
v -4 -6 0
v -3 -6 0
v -5 -7 0
v -5 -6 0
v -28 -7 0
v -29 -7 0
v 0 -8 0
v -1 -8 0
v -2 -8 0
v -2 -7 0
v -3 -8 0
v -4 -8 0
v -5 -8 0
v -22 -8 0
v -23 -8 0
v -23 -7 0
v -22 -7 0
v -24 -8 0
v -24 -7 0
v -25 -8 0
v -26 -8 0
v -26 -7 0
v -25 -7 0
v -27 -8 0
v -27 -7 0
v -28 -8 0
v -29 -8 0
v 0 -9 0
v -1 -9 0
v -2 -9 0
v -3 -9 0
v -4 -9 0
v -5 -9 0
v -22 -9 0
v -23 -9 0
v -24 -9 0
v -25 -9 0
v -26 -9 0
v -27 -9 0
v -28 -9 0
v -29 -9 0
v 0 -10 0
v -1 -10 0
v -4 -10 0
v -5 -10 0
v -6 -10 0
v -6 -9 0
v -22 -10 0
v -23 -10 0
v -24 -10 0
v -25 -10 0
v -26 -10 0
v -27 -10 0
v -28 -10 0
v -29 -10 0
v 0 -11 0
v -1 -11 0
v -3 -11 0
v -4 -11 0
v -3 -10 0
v -5 -11 0
v -6 -11 0
v -7 -11 0
v -7 -10 0
v -13 -11 0
v -14 -11 0
v -14 -10 0
v -13 -10 0
v -15 -11 0
v -15 -10 0
v -16 -11 0
v -16 -10 0
v -22 -11 0
v -23 -11 0
v -24 -11 0
v -25 -11 0
v -26 -11 0
v -27 -11 0
v -28 -11 0
v -29 -11 0
v 0 -12 0
v -1 -12 0
v -3 -12 0
v -4 -12 0
v -5 -12 0
v -6 -12 0
v -7 -12 0
v -10 -12 0
v -11 -12 0
v -11 -11 0
v -10 -11 0
v -12 -12 0
v -12 -11 0
v -13 -12 0
v -14 -12 0
v -15 -12 0
v -16 -12 0
v -17 -12 0
v -18 -12 0
v -18 -11 0
v -17 -11 0
v -19 -12 0
v -19 -11 0
v -22 -12 0
v -23 -12 0
v -24 -12 0
v -25 -12 0
v -26 -12 0
v -27 -12 0
v -28 -12 0
v -29 -12 0
v 0 -13 0
v -1 -13 0
v -3 -13 0
v -4 -13 0
v -5 -13 0
v -6 -13 0
v -7 -13 0
v -10 -13 0
v -11 -13 0
v -12 -13 0
v -13 -13 0
v -14 -13 0
v -15 -13 0
v -16 -13 0
v -17 -13 0
v -18 -13 0
v -19 -13 0
v -22 -13 0
v -23 -13 0
v -24 -13 0
v -25 -13 0
v -26 -13 0
v -27 -13 0
v -28 -13 0
v -29 -13 0
v 0 -14 0
v -1 -14 0
v -4 -14 0
v -5 -14 0
v -6 -14 0
v -8 -14 0
v -9 -14 0
v -9 -13 0
v -8 -13 0
v -10 -14 0
v -13 -14 0
v -14 -14 0
v -15 -14 0
v -16 -14 0
v -19 -14 0
v -20 -14 0
v -20 -13 0
v -21 -14 0
v -21 -13 0
v -28 -14 0
v -29 -14 0
v 0 -15 0
v -1 -15 0
v -8 -15 0
v -9 -15 0
v -10 -15 0
v -13 -15 0
v -14 -15 0
v -15 -15 0
v -16 -15 0
v -19 -15 0
v -20 -15 0
v -21 -15 0
v -28 -15 0
v -29 -15 0
v 0 -16 0
v -1 -16 0
v -2 -16 0
v -2 -15 0
v -3 -16 0
v -3 -15 0
v -4 -16 0
v -4 -15 0
v -5 -16 0
v -5 -15 0
v -6 -16 0
v -6 -15 0
v -7 -16 0
v -7 -15 0
v -8 -16 0
v -12 -16 0
v -13 -16 0
v -12 -15 0
v -14 -16 0
v -15 -16 0
v -16 -16 0
v -17 -16 0
v -17 -15 0
v -21 -16 0
v -22 -16 0
v -22 -15 0
v -23 -16 0
v -23 -15 0
v -24 -16 0
v -24 -15 0
v -25 -16 0
v -25 -15 0
v -26 -16 0
v -26 -15 0
v -27 -16 0
v -27 -15 0
v -28 -16 0
v -29 -16 0

# Texture Coorindates (Count = 56)
vt 0.2501221 0.0001220703
vt 0.4998779 0.0001220703
vt 0.4998779 0.2498779
vt 0.2501221 0.2498779
vt 0.2501221 0.7501221
vt 0.4998779 0.7501221
vt 0.4998779 0.9998779
vt 0.2501221 0.9998779
vt 0.0001220703 0.7501221
vt 0.2498779 0.7501221
vt 0.2498779 0.9998779
vt 0.0001220703 0.9998779
vt 0.5001221 0.0001220703
vt 0.7498779 0.0001220703
vt 0.7498779 0.2498779
vt 0.5001221 0.2498779
vt 0.7501221 0.7501221
vt 0.9998779 0.7501221
vt 0.9998779 0.9998779
vt 0.7501221 0.9998779
vt 0.0001220703 0.0001220703
vt 0.2498779 0.0001220703
vt 0.2498779 0.2498779
vt 0.0001220703 0.2498779
vt 0.0001220703 0.5001221
vt 0.2498779 0.5001221
vt 0.2498779 0.7498779
vt 0.0001220703 0.7498779
vt 0.0001220703 0.2501221
vt 0.2498779 0.2501221
vt 0.2498779 0.4998779
vt 0.0001220703 0.4998779
vt 0.2501221 0.2501221
vt 0.4998779 0.2501221
vt 0.4998779 0.4998779
vt 0.2501221 0.4998779
vt 0.5001221 0.7501221
vt 0.7498779 0.7501221
vt 0.7498779 0.9998779
vt 0.5001221 0.9998779
vt 0.7501221 0.5001221
vt 0.9998779 0.5001221
vt 0.9998779 0.7498779
vt 0.7501221 0.7498779
vt 0.7501221 0.0001220703
vt 0.9998779 0.0001220703
vt 0.9998779 0.2498779
vt 0.7501221 0.2498779
vt 0.7501221 0.2501221
vt 0.9998779 0.2501221
vt 0.9998779 0.4998779
vt 0.7501221 0.4998779
vt 0.2501221 0.5001221
vt 0.4998779 0.5001221
vt 0.4998779 0.7498779
vt 0.2501221 0.7498779

# Normal
vn 0 0 -1

# Groups (Count = 1)
g mesh_[00]_[00]
f  1/1/1  2/2/1  3/3/1  4/4/1 
f  2/5/1  5/6/1  6/7/1  3/8/1 
f  5/5/1  7/6/1  8/7/1  6/8/1 
f  7/5/1  9/6/1  10/7/1  8/8/1 
f  9/5/1  11/6/1  12/7/1  10/8/1 
f  11/5/1  13/6/1  14/7/1  12/8/1 
f  15/9/1  16/10/1  17/11/1  18/12/1 
f  16/13/1  19/14/1  20/15/1  17/16/1 
f  19/17/1  21/18/1  22/19/1  20/20/1 
f  21/1/1  23/2/1  24/3/1  22/4/1 
f  23/21/1  25/22/1  26/23/1  24/24/1 
f  27/9/1  28/10/1  29/11/1  30/12/1 
f  28/5/1  31/6/1  32/7/1  29/8/1 
f  31/5/1  33/6/1  34/7/1  32/8/1 
f  33/5/1  35/6/1  36/7/1  34/8/1 
f  35/5/1  37/6/1  38/7/1  36/8/1 
f  37/5/1  39/6/1  40/7/1  38/8/1 
f  39/13/1  41/14/1  42/15/1  40/16/1 
f  43/25/1  44/26/1  2/27/1  1/28/1 
f  45/29/1  46/30/1  19/31/1  16/32/1 
f  46/17/1  47/18/1  21/19/1  19/20/1 
f  47/25/1  48/26/1  23/27/1  21/28/1 
f  49/29/1  50/30/1  41/31/1  39/32/1 
f  51/25/1  52/26/1  44/27/1  43/28/1 
f  53/29/1  54/30/1  46/31/1  45/32/1 
f  54/17/1  55/18/1  47/19/1  46/20/1 
f  55/25/1  56/26/1  48/27/1  47/28/1 
f  57/29/1  58/30/1  50/31/1  49/32/1 
f  59/25/1  60/26/1  52/27/1  51/28/1 
f  61/29/1  62/30/1  54/31/1  53/32/1 
f  62/17/1  63/18/1  55/19/1  54/20/1 
f  63/25/1  64/26/1  56/27/1  55/28/1 
f  65/29/1  66/30/1  58/31/1  57/32/1 
f  67/25/1  68/26/1  60/27/1  59/28/1 
f  69/33/1  70/34/1  71/35/1  72/36/1 
f  70/37/1  73/38/1  74/39/1  71/40/1 
f  73/37/1  75/38/1  76/39/1  74/40/1 
f  75/37/1  77/38/1  78/39/1  76/40/1 
f  77/41/1  79/42/1  80/43/1  78/44/1 
f  81/29/1  82/30/1  62/31/1  61/32/1 
f  82/17/1  83/18/1  63/19/1  62/20/1 
f  83/25/1  84/26/1  64/27/1  63/28/1 
f  85/33/1  86/34/1  87/35/1  88/36/1 
f  86/37/1  89/38/1  90/39/1  87/40/1 
f  89/37/1  91/38/1  92/39/1  90/40/1 
f  91/37/1  93/38/1  94/39/1  92/40/1 
f  93/41/1  95/42/1  96/43/1  94/44/1 
f  97/29/1  98/30/1  66/31/1  65/32/1 
f  99/25/1  100/26/1  68/27/1  67/28/1 
f  101/9/1  102/10/1  70/11/1  69/12/1 
f  102/5/1  103/6/1  73/7/1  70/8/1 
f  103/5/1  104/6/1  75/7/1  73/8/1 
f  104/5/1  105/6/1  77/7/1  75/8/1 
f  105/21/1  106/22/1  79/23/1  77/24/1 
f  107/9/1  108/10/1  82/11/1  81/12/1 
f  108/5/1  109/6/1  83/7/1  82/8/1 
f  109/21/1  110/22/1  84/23/1  83/24/1 
f  111/9/1  112/10/1  86/11/1  85/12/1 
f  112/5/1  113/6/1  89/7/1  86/8/1 
f  113/5/1  114/6/1  91/7/1  89/8/1 
f  114/5/1  115/6/1  93/7/1  91/8/1 
f  115/21/1  116/22/1  95/23/1  93/24/1 
f  117/29/1  118/30/1  98/31/1  97/32/1 
f  119/25/1  120/26/1  100/27/1  99/28/1 
f  121/33/1  122/34/1  123/35/1  124/36/1 
f  122/41/1  125/42/1  126/43/1  123/44/1 
f  127/29/1  128/30/1  118/31/1  117/32/1 
f  129/45/1  130/46/1  120/47/1  119/48/1 
f  130/37/1  131/38/1  132/39/1  120/40/1 
f  131/37/1  133/38/1  121/39/1  132/40/1 
f  133/49/1  134/50/1  122/51/1  121/52/1 
f  134/25/1  135/26/1  125/27/1  122/28/1 
f  136/33/1  137/34/1  138/35/1  139/36/1 
f  137/41/1  140/42/1  141/43/1  138/44/1 
f  142/33/1  143/34/1  144/35/1  145/36/1 
f  143/41/1  146/42/1  147/43/1  144/44/1 
f  148/29/1  149/30/1  128/31/1  127/32/1 
f  150/1/1  151/2/1  130/3/1  129/4/1 
f  151/5/1  152/6/1  131/7/1  130/8/1 
f  152/5/1  153/6/1  133/7/1  131/8/1 
f  153/5/1  154/6/1  134/7/1  133/8/1 
f  154/21/1  155/22/1  135/23/1  134/24/1 
f  156/29/1  157/30/1  137/31/1  136/32/1 
f  157/25/1  158/26/1  140/27/1  137/28/1 
f  159/29/1  160/30/1  143/31/1  142/32/1 
f  160/25/1  161/26/1  146/27/1  143/28/1 
f  162/29/1  163/30/1  149/31/1  148/32/1 
f  164/25/1  165/26/1  151/27/1  150/28/1 
f  166/53/1  167/54/1  155/55/1  154/56/1 
f  167/53/1  168/54/1  169/55/1  155/56/1 
f  170/29/1  171/30/1  157/31/1  156/32/1 
f  171/25/1  172/26/1  158/27/1  157/28/1 
f  173/29/1  174/30/1  160/31/1  159/32/1 
f  174/25/1  175/26/1  161/27/1  160/28/1 
f  176/29/1  177/30/1  163/31/1  162/32/1 
f  178/25/1  179/26/1  165/27/1  164/28/1 
f  180/53/1  181/54/1  166/55/1  182/56/1 
f  181/33/1  183/34/1  167/35/1  166/36/1 
f  183/41/1  184/42/1  168/43/1  167/44/1 
f  184/53/1  185/54/1  186/55/1  168/56/1 
f  187/33/1  188/34/1  189/35/1  190/36/1 
f  188/37/1  191/38/1  192/39/1  189/40/1 
f  191/41/1  193/42/1  194/43/1  192/44/1 
f  195/29/1  196/30/1  171/31/1  170/32/1 
f  196/25/1  197/26/1  172/27/1  171/28/1 
f  198/29/1  199/30/1  174/31/1  173/32/1 
f  199/25/1  200/26/1  175/27/1  174/28/1 
f  201/29/1  202/30/1  177/31/1  176/32/1 
f  203/25/1  204/26/1  179/27/1  178/28/1 
f  205/33/1  206/34/1  181/35/1  180/36/1 
f  206/49/1  207/50/1  183/51/1  181/52/1 
f  207/45/1  208/46/1  184/47/1  183/48/1 
f  208/41/1  209/42/1  185/43/1  184/44/1 
f  210/33/1  211/34/1  212/35/1  213/36/1 
f  211/41/1  214/42/1  215/43/1  212/44/1 
f  216/29/1  217/30/1  188/31/1  187/32/1 
f  217/17/1  218/18/1  191/19/1  188/20/1 
f  218/25/1  219/26/1  193/27/1  191/28/1 
f  220/33/1  221/34/1  222/35/1  223/36/1 
f  221/41/1  224/42/1  225/43/1  222/44/1 
f  226/29/1  227/30/1  196/31/1  195/32/1 
f  227/25/1  228/26/1  197/27/1  196/28/1 
f  229/29/1  230/30/1  199/31/1  198/32/1 
f  230/25/1  231/26/1  200/27/1  199/28/1 
f  232/29/1  233/30/1  202/31/1  201/32/1 
f  234/25/1  235/26/1  204/27/1  203/28/1 
f  236/9/1  237/10/1  206/11/1  205/12/1 
f  237/13/1  238/14/1  207/15/1  206/16/1 
f  238/1/1  239/2/1  208/3/1  207/4/1 
f  239/21/1  240/22/1  209/23/1  208/24/1 
f  241/9/1  242/10/1  211/11/1  210/12/1 
f  242/21/1  243/22/1  214/23/1  211/24/1 
f  244/29/1  245/30/1  217/31/1  216/32/1 
f  245/17/1  246/18/1  218/19/1  217/20/1 
f  246/25/1  247/26/1  219/27/1  218/28/1 
f  248/9/1  249/10/1  221/11/1  220/12/1 
f  249/21/1  250/22/1  224/23/1  221/24/1 
f  251/9/1  252/10/1  227/11/1  226/12/1 
f  252/21/1  253/22/1  228/23/1  227/24/1 
f  254/9/1  255/10/1  230/11/1  229/12/1 
f  255/21/1  256/22/1  231/23/1  230/24/1 
f  257/29/1  258/30/1  233/31/1  232/32/1 
f  259/25/1  260/26/1  235/27/1  234/28/1 
f  261/9/1  262/10/1  238/11/1  237/12/1 
f  262/21/1  263/22/1  239/23/1  238/24/1 
f  264/33/1  265/34/1  266/35/1  267/36/1 
f  265/41/1  268/42/1  241/43/1  266/44/1 
f  269/29/1  270/30/1  245/31/1  244/32/1 
f  270/17/1  271/18/1  246/19/1  245/20/1 
f  271/25/1  272/26/1  247/27/1  246/28/1 
f  273/33/1  274/34/1  275/35/1  250/36/1 
f  274/41/1  276/42/1  277/43/1  275/44/1 
f  278/29/1  279/30/1  258/31/1  257/32/1 
f  280/25/1  281/26/1  260/27/1  259/28/1 
f  282/9/1  283/10/1  265/11/1  264/12/1 
f  283/21/1  284/22/1  268/23/1  265/24/1 
f  285/29/1  286/30/1  270/31/1  269/32/1 
f  286/17/1  287/18/1  271/19/1  270/20/1 
f  287/25/1  288/26/1  272/27/1  271/28/1 
f  289/9/1  290/10/1  274/11/1  273/12/1 
f  290/21/1  291/22/1  276/23/1  274/24/1 
f  292/29/1  293/30/1  279/31/1  278/32/1 
f  294/45/1  295/46/1  281/47/1  280/48/1 
f  295/37/1  296/38/1  297/39/1  281/40/1 
f  296/37/1  298/38/1  299/39/1  297/40/1 
f  298/37/1  300/38/1  301/39/1  299/40/1 
f  300/37/1  302/38/1  303/39/1  301/40/1 
f  302/37/1  304/38/1  305/39/1  303/40/1 
f  304/41/1  306/42/1  307/43/1  305/44/1 
f  306/53/1  308/54/1  282/55/1  307/56/1 
f  309/33/1  310/34/1  285/35/1  311/36/1 
f  310/49/1  312/50/1  286/51/1  285/52/1 
f  312/17/1  313/18/1  287/19/1  286/20/1 
f  313/45/1  314/46/1  288/47/1  287/48/1 
f  314/41/1  315/42/1  316/43/1  288/44/1 
f  317/53/1  318/54/1  319/55/1  291/56/1 
f  318/33/1  320/34/1  321/35/1  319/36/1 
f  320/37/1  322/38/1  323/39/1  321/40/1 
f  322/37/1  324/38/1  325/39/1  323/40/1 
f  324/37/1  326/38/1  327/39/1  325/40/1 
f  326/37/1  328/38/1  329/39/1  327/40/1 
f  328/37/1  330/38/1  292/39/1  329/40/1 
f  330/49/1  331/50/1  293/51/1  292/52/1 
