# Wavefront OBJ file automatically generated by Tiled2Unity

# Vertices (Count = 526)
v 0 -1 0
v -1 -1 0
v -1 0 0
v 0 0 0
v -2 -1 0
v -2 0 0
v -3 -1 0
v -3 0 0
v -4 -1 0
v -4 0 0
v -5 -1 0
v -5 0 0
v -6 -1 0
v -6 0 0
v -7 -1 0
v -7 0 0
v -8 -1 0
v -8 0 0
v -9 -1 0
v -9 0 0
v -10 -1 0
v -10 0 0
v -11 -1 0
v -11 0 0
v -12 -1 0
v -12 0 0
v -13 -1 0
v -13 0 0
v -14 -1 0
v -14 0 0
v -15 -1 0
v -15 0 0
v -16 -1 0
v -16 0 0
v -17 -1 0
v -17 0 0
v -18 -1 0
v -18 0 0
v -19 -1 0
v -19 0 0
v -20 -1 0
v -20 0 0
v -21 -1 0
v -21 0 0
v -22 -1 0
v -22 0 0
v -23 -1 0
v -23 0 0
v -24 -1 0
v -24 0 0
v -25 -1 0
v -25 0 0
v -26 -1 0
v -26 0 0
v -27 -1 0
v -27 0 0
v -28 -1 0
v -28 0 0
v -29 -1 0
v -29 0 0
v -30 -1 0
v -30 0 0
v -31 -1 0
v -31 0 0
v -32 -1 0
v -32 0 0
v -33 -1 0
v -33 0 0
v -34 -1 0
v -34 0 0
v -35 -1 0
v -35 0 0
v -36 -1 0
v -36 0 0
v -37 -1 0
v -37 0 0
v -38 -1 0
v -38 0 0
v -39 -1 0
v -39 0 0
v -40 -1 0
v -40 0 0
v -41 -1 0
v -41 0 0
v -42 -1 0
v -42 0 0
v -43 -1 0
v -43 0 0
v -44 -1 0
v -44 0 0
v -45 -1 0
v -45 0 0
v -46 -1 0
v -46 0 0
v -47 -1 0
v -47 0 0
v -48 -1 0
v -48 0 0
v -49 -1 0
v -49 0 0
v -50 -1 0
v -50 0 0
v -51 -1 0
v -51 0 0
v -52 -1 0
v -52 0 0
v -53 -1 0
v -53 0 0
v -54 -1 0
v -54 0 0
v -55 -1 0
v -55 0 0
v -56 -1 0
v -56 0 0
v -57 -1 0
v -57 0 0
v -58 -1 0
v -58 0 0
v 0 -2 0
v -1 -2 0
v -57 -2 0
v -58 -2 0
v 0 -3 0
v -1 -3 0
v -57 -3 0
v -58 -3 0
v 0 -4 0
v -1 -4 0
v -57 -4 0
v -58 -4 0
v 0 -5 0
v -1 -5 0
v -57 -5 0
v -58 -5 0
v 0 -6 0
v -1 -6 0
v -57 -6 0
v -58 -6 0
v 0 -7 0
v -1 -7 0
v -57 -7 0
v -58 -7 0
v 0 -8 0
v -1 -8 0
v -57 -8 0
v -58 -8 0
v 0 -9 0
v -1 -9 0
v -57 -9 0
v -58 -9 0
v 0 -10 0
v -1 -10 0
v -57 -10 0
v -58 -10 0
v 0 -11 0
v -1 -11 0
v -57 -11 0
v -58 -11 0
v 0 -12 0
v -1 -12 0
v -57 -12 0
v -58 -12 0
v 0 -13 0
v -1 -13 0
v -57 -13 0
v -58 -13 0
v 0 -14 0
v -1 -14 0
v -57 -14 0
v -58 -14 0
v 0 -15 0
v -1 -15 0
v -57 -15 0
v -58 -15 0
v 0 -16 0
v -1 -16 0
v -57 -16 0
v -58 -16 0
v 0 -17 0
v -1 -17 0
v -57 -17 0
v -58 -17 0
v 0 -18 0
v -1 -18 0
v -21 -18 0
v -22 -18 0
v -22 -17 0
v -21 -17 0
v -57 -18 0
v -58 -18 0
v 0 -19 0
v -1 -19 0
v -21 -19 0
v -22 -19 0
v -57 -19 0
v -58 -19 0
v 0 -20 0
v -1 -20 0
v -21 -20 0
v -22 -20 0
v -39 -20 0
v -40 -20 0
v -40 -19 0
v -39 -19 0
v -57 -20 0
v -58 -20 0
v 0 -21 0
v -1 -21 0
v -21 -21 0
v -22 -21 0
v -57 -21 0
v -58 -21 0
v 0 -22 0
v -1 -22 0
v -3 -22 0
v -4 -22 0
v -4 -21 0
v -3 -21 0
v -5 -22 0
v -5 -21 0
v -6 -22 0
v -6 -21 0
v -7 -22 0
v -7 -21 0
v -8 -22 0
v -8 -21 0
v -9 -22 0
v -9 -21 0
v -10 -22 0
v -10 -21 0
v -11 -22 0
v -11 -21 0
v -12 -22 0
v -12 -21 0
v -13 -22 0
v -13 -21 0
v -14 -22 0
v -14 -21 0
v -15 -22 0
v -15 -21 0
v -16 -22 0
v -16 -21 0
v -17 -22 0
v -17 -21 0
v -18 -22 0
v -18 -21 0
v -19 -22 0
v -19 -21 0
v -20 -22 0
v -20 -21 0
v -21 -22 0
v -22 -22 0
v -36 -22 0
v -37 -22 0
v -37 -21 0
v -36 -21 0
v -38 -22 0
v -38 -21 0
v -39 -22 0
v -39 -21 0
v -41 -22 0
v -42 -22 0
v -42 -21 0
v -41 -21 0
v -57 -22 0
v -58 -22 0
v 0 -23 0
v -1 -23 0
v -57 -23 0
v -58 -23 0
v 0 -24 0
v -1 -24 0
v -28 -24 0
v -29 -24 0
v -29 -23 0
v -28 -23 0
v -40 -24 0
v -41 -24 0
v -41 -23 0
v -40 -23 0
v -57 -24 0
v -58 -24 0
v 0 -25 0
v -1 -25 0
v -28 -25 0
v -29 -25 0
v -34 -25 0
v -35 -25 0
v -35 -24 0
v -34 -24 0
v -36 -25 0
v -36 -24 0
v -38 -25 0
v -39 -25 0
v -39 -24 0
v -38 -24 0
v -57 -25 0
v -58 -25 0
v 0 -26 0
v -1 -26 0
v -11 -26 0
v -12 -26 0
v -12 -25 0
v -11 -25 0
v -22 -26 0
v -23 -26 0
v -23 -25 0
v -22 -25 0
v -28 -26 0
v -29 -26 0
v -57 -26 0
v -58 -26 0
v 0 -27 0
v -1 -27 0
v -10 -27 0
v -11 -27 0
v -10 -26 0
v -12 -27 0
v -13 -27 0
v -13 -26 0
v -22 -27 0
v -23 -27 0
v -28 -27 0
v -29 -27 0
v -30 -27 0
v -30 -26 0
v -31 -27 0
v -31 -26 0
v -32 -27 0
v -32 -26 0
v -33 -27 0
v -33 -26 0
v -34 -27 0
v -34 -26 0
v -35 -27 0
v -35 -26 0
v -36 -27 0
v -36 -26 0
v -40 -27 0
v -41 -27 0
v -41 -26 0
v -40 -26 0
v -57 -27 0
v -58 -27 0
v 0 -28 0
v -1 -28 0
v -9 -28 0
v -10 -28 0
v -9 -27 0
v -11 -28 0
v -12 -28 0
v -13 -28 0
v -14 -28 0
v -14 -27 0
v -21 -28 0
v -22 -28 0
v -21 -27 0
v -23 -28 0
v -24 -28 0
v -24 -27 0
v -25 -28 0
v -25 -27 0
v -26 -28 0
v -26 -27 0
v -27 -28 0
v -27 -27 0
v -28 -28 0
v -29 -28 0
v -57 -28 0
v -58 -28 0
v 0 -29 0
v -1 -29 0
v -8 -29 0
v -9 -29 0
v -8 -28 0
v -10 -29 0
v -11 -29 0
v -12 -29 0
v -13 -29 0
v -14 -29 0
v -15 -29 0
v -15 -28 0
v -38 -29 0
v -39 -29 0
v -39 -28 0
v -38 -28 0
v -57 -29 0
v -58 -29 0
v 0 -30 0
v -1 -30 0
v -7 -30 0
v -8 -30 0
v -7 -29 0
v -9 -30 0
v -10 -30 0
v -11 -30 0
v -12 -30 0
v -13 -30 0
v -14 -30 0
v -15 -30 0
v -16 -30 0
v -16 -29 0
v -57 -30 0
v -58 -30 0
v 0 -31 0
v -1 -31 0
v -6 -31 0
v -7 -31 0
v -6 -30 0
v -8 -31 0
v -9 -31 0
v -10 -31 0
v -11 -31 0
v -12 -31 0
v -13 -31 0
v -14 -31 0
v -15 -31 0
v -16 -31 0
v -17 -31 0
v -17 -30 0
v -40 -31 0
v -41 -31 0
v -41 -30 0
v -40 -30 0
v -57 -31 0
v -58 -31 0
v 0 -32 0
v -1 -32 0
v -2 -32 0
v -2 -31 0
v -3 -32 0
v -3 -31 0
v -4 -32 0
v -4 -31 0
v -5 -32 0
v -5 -31 0
v -6 -32 0
v -7 -32 0
v -8 -32 0
v -9 -32 0
v -10 -32 0
v -11 -32 0
v -12 -32 0
v -13 -32 0
v -14 -32 0
v -15 -32 0
v -16 -32 0
v -17 -32 0
v -18 -32 0
v -18 -31 0
v -19 -32 0
v -19 -31 0
v -20 -32 0
v -20 -31 0
v -21 -32 0
v -21 -31 0
v -22 -32 0
v -22 -31 0
v -23 -32 0
v -23 -31 0
v -24 -32 0
v -24 -31 0
v -25 -32 0
v -25 -31 0
v -26 -32 0
v -26 -31 0
v -27 -32 0
v -27 -31 0
v -28 -32 0
v -28 -31 0
v -29 -32 0
v -29 -31 0
v -30 -32 0
v -30 -31 0
v -31 -32 0
v -31 -31 0
v -32 -32 0
v -32 -31 0
v -33 -32 0
v -33 -31 0
v -34 -32 0
v -34 -31 0
v -35 -32 0
v -35 -31 0
v -36 -32 0
v -36 -31 0
v -37 -32 0
v -37 -31 0
v -38 -32 0
v -38 -31 0
v -39 -32 0
v -39 -31 0
v -40 -32 0
v -41 -32 0
v -42 -32 0
v -42 -31 0
v -43 -32 0
v -43 -31 0
v -44 -32 0
v -44 -31 0
v -45 -32 0
v -45 -31 0
v -46 -32 0
v -46 -31 0
v -47 -32 0
v -47 -31 0
v -48 -32 0
v -48 -31 0
v -49 -32 0
v -49 -31 0
v -50 -32 0
v -50 -31 0
v -51 -32 0
v -51 -31 0
v -52 -32 0
v -52 -31 0
v -53 -32 0
v -53 -31 0
v -54 -32 0
v -54 -31 0
v -55 -32 0
v -55 -31 0
v -56 -32 0
v -56 -31 0
v -57 -32 0
v -58 -32 0

# Texture Coorindates (Count = 16)
vt 0.0001220703 0.6667888
vt 0.3332113 0.6667888
vt 0.3332113 0.9998779
vt 0.0001220703 0.9998779
vt 0.6667888 0.0001220703
vt 0.9998779 0.0001220703
vt 0.9998779 0.3332113
vt 0.6667888 0.3332113
vt 0.3334554 0.6667888
vt 0.6665446 0.6667888
vt 0.6665446 0.9998779
vt 0.3334554 0.9998779
vt 0.6667888 0.6667888
vt 0.9998779 0.6667888
vt 0.9998779 0.9998779
vt 0.6667888 0.9998779

# Normal
vn 0 0 -1

# Groups (Count = 1)
g mesh_[00]_[00]
f  1/1/1  2/2/1  3/3/1  4/4/1 
f  2/5/1  5/6/1  6/7/1  3/8/1 
f  5/5/1  7/6/1  8/7/1  6/8/1 
f  7/5/1  9/6/1  10/7/1  8/8/1 
f  9/5/1  11/6/1  12/7/1  10/8/1 
f  11/5/1  13/6/1  14/7/1  12/8/1 
f  13/5/1  15/6/1  16/7/1  14/8/1 
f  15/5/1  17/6/1  18/7/1  16/8/1 
f  17/5/1  19/6/1  20/7/1  18/8/1 
f  19/5/1  21/6/1  22/7/1  20/8/1 
f  21/5/1  23/6/1  24/7/1  22/8/1 
f  23/5/1  25/6/1  26/7/1  24/8/1 
f  25/5/1  27/6/1  28/7/1  26/8/1 
f  27/5/1  29/6/1  30/7/1  28/8/1 
f  29/5/1  31/6/1  32/7/1  30/8/1 
f  31/5/1  33/6/1  34/7/1  32/8/1 
f  33/5/1  35/6/1  36/7/1  34/8/1 
f  35/5/1  37/6/1  38/7/1  36/8/1 
f  37/5/1  39/6/1  40/7/1  38/8/1 
f  39/5/1  41/6/1  42/7/1  40/8/1 
f  41/5/1  43/6/1  44/7/1  42/8/1 
f  43/5/1  45/6/1  46/7/1  44/8/1 
f  45/5/1  47/6/1  48/7/1  46/8/1 
f  47/5/1  49/6/1  50/7/1  48/8/1 
f  49/5/1  51/6/1  52/7/1  50/8/1 
f  51/5/1  53/6/1  54/7/1  52/8/1 
f  53/5/1  55/6/1  56/7/1  54/8/1 
f  55/5/1  57/6/1  58/7/1  56/8/1 
f  57/5/1  59/6/1  60/7/1  58/8/1 
f  59/5/1  61/6/1  62/7/1  60/8/1 
f  61/5/1  63/6/1  64/7/1  62/8/1 
f  63/5/1  65/6/1  66/7/1  64/8/1 
f  65/5/1  67/6/1  68/7/1  66/8/1 
f  67/5/1  69/6/1  70/7/1  68/8/1 
f  69/5/1  71/6/1  72/7/1  70/8/1 
f  71/5/1  73/6/1  74/7/1  72/8/1 
f  73/5/1  75/6/1  76/7/1  74/8/1 
f  75/5/1  77/6/1  78/7/1  76/8/1 
f  77/5/1  79/6/1  80/7/1  78/8/1 
f  79/5/1  81/6/1  82/7/1  80/8/1 
f  81/5/1  83/6/1  84/7/1  82/8/1 
f  83/5/1  85/6/1  86/7/1  84/8/1 
f  85/5/1  87/6/1  88/7/1  86/8/1 
f  87/5/1  89/6/1  90/7/1  88/8/1 
f  89/5/1  91/6/1  92/7/1  90/8/1 
f  91/5/1  93/6/1  94/7/1  92/8/1 
f  93/5/1  95/6/1  96/7/1  94/8/1 
f  95/5/1  97/6/1  98/7/1  96/8/1 
f  97/5/1  99/6/1  100/7/1  98/8/1 
f  99/5/1  101/6/1  102/7/1  100/8/1 
f  101/5/1  103/6/1  104/7/1  102/8/1 
f  103/5/1  105/6/1  106/7/1  104/8/1 
f  105/5/1  107/6/1  108/7/1  106/8/1 
f  107/5/1  109/6/1  110/7/1  108/8/1 
f  109/5/1  111/6/1  112/7/1  110/8/1 
f  111/5/1  113/6/1  114/7/1  112/8/1 
f  113/5/1  115/6/1  116/7/1  114/8/1 
f  115/5/1  117/6/1  118/7/1  116/8/1 
f  119/1/1  120/2/1  2/3/1  1/4/1 
f  121/1/1  122/2/1  117/3/1  115/4/1 
f  123/1/1  124/2/1  120/3/1  119/4/1 
f  125/1/1  126/2/1  122/3/1  121/4/1 
f  127/1/1  128/2/1  124/3/1  123/4/1 
f  129/1/1  130/2/1  126/3/1  125/4/1 
f  131/1/1  132/2/1  128/3/1  127/4/1 
f  133/1/1  134/2/1  130/3/1  129/4/1 
f  135/1/1  136/2/1  132/3/1  131/4/1 
f  137/1/1  138/2/1  134/3/1  133/4/1 
f  139/1/1  140/2/1  136/3/1  135/4/1 
f  141/1/1  142/2/1  138/3/1  137/4/1 
f  143/1/1  144/2/1  140/3/1  139/4/1 
f  145/1/1  146/2/1  142/3/1  141/4/1 
f  147/1/1  148/2/1  144/3/1  143/4/1 
f  149/1/1  150/2/1  146/3/1  145/4/1 
f  151/1/1  152/2/1  148/3/1  147/4/1 
f  153/1/1  154/2/1  150/3/1  149/4/1 
f  155/1/1  156/2/1  152/3/1  151/4/1 
f  157/1/1  158/2/1  154/3/1  153/4/1 
f  159/1/1  160/2/1  156/3/1  155/4/1 
f  161/1/1  162/2/1  158/3/1  157/4/1 
f  163/1/1  164/2/1  160/3/1  159/4/1 
f  165/1/1  166/2/1  162/3/1  161/4/1 
f  167/1/1  168/2/1  164/3/1  163/4/1 
f  169/1/1  170/2/1  166/3/1  165/4/1 
f  171/1/1  172/2/1  168/3/1  167/4/1 
f  173/1/1  174/2/1  170/3/1  169/4/1 
f  175/1/1  176/2/1  172/3/1  171/4/1 
f  177/1/1  178/2/1  174/3/1  173/4/1 
f  179/1/1  180/2/1  176/3/1  175/4/1 
f  181/1/1  182/2/1  178/3/1  177/4/1 
f  183/1/1  184/2/1  180/3/1  179/4/1 
f  185/1/1  186/2/1  187/3/1  188/4/1 
f  189/1/1  190/2/1  182/3/1  181/4/1 
f  191/1/1  192/2/1  184/3/1  183/4/1 
f  193/1/1  194/2/1  186/3/1  185/4/1 
f  195/1/1  196/2/1  190/3/1  189/4/1 
f  197/1/1  198/2/1  192/3/1  191/4/1 
f  199/1/1  200/2/1  194/3/1  193/4/1 
f  201/9/1  202/10/1  203/11/1  204/12/1 
f  205/1/1  206/2/1  196/3/1  195/4/1 
f  207/1/1  208/2/1  198/3/1  197/4/1 
f  209/1/1  210/2/1  200/3/1  199/4/1 
f  211/1/1  212/2/1  206/3/1  205/4/1 
f  213/1/1  214/2/1  208/3/1  207/4/1 
f  215/1/1  216/2/1  217/3/1  218/4/1 
f  216/1/1  219/2/1  220/3/1  217/4/1 
f  219/1/1  221/2/1  222/3/1  220/4/1 
f  221/1/1  223/2/1  224/3/1  222/4/1 
f  223/1/1  225/2/1  226/3/1  224/4/1 
f  225/1/1  227/2/1  228/3/1  226/4/1 
f  227/1/1  229/2/1  230/3/1  228/4/1 
f  229/1/1  231/2/1  232/3/1  230/4/1 
f  231/1/1  233/2/1  234/3/1  232/4/1 
f  233/1/1  235/2/1  236/3/1  234/4/1 
f  235/1/1  237/2/1  238/3/1  236/4/1 
f  237/1/1  239/2/1  240/3/1  238/4/1 
f  239/1/1  241/2/1  242/3/1  240/4/1 
f  241/1/1  243/2/1  244/3/1  242/4/1 
f  243/1/1  245/2/1  246/3/1  244/4/1 
f  245/1/1  247/2/1  248/3/1  246/4/1 
f  247/1/1  249/2/1  250/3/1  248/4/1 
f  249/1/1  251/2/1  209/3/1  250/4/1 
f  251/1/1  252/2/1  210/3/1  209/4/1 
f  253/13/1  254/14/1  255/15/1  256/16/1 
f  254/13/1  257/14/1  258/15/1  255/16/1 
f  257/13/1  259/14/1  260/15/1  258/16/1 
f  261/9/1  262/10/1  263/11/1  264/12/1 
f  265/1/1  266/2/1  212/3/1  211/4/1 
f  267/1/1  268/2/1  214/3/1  213/4/1 
f  269/1/1  270/2/1  266/3/1  265/4/1 
f  271/1/1  272/2/1  268/3/1  267/4/1 
f  273/1/1  274/2/1  275/3/1  276/4/1 
f  277/9/1  278/10/1  279/11/1  280/12/1 
f  281/1/1  282/2/1  270/3/1  269/4/1 
f  283/1/1  284/2/1  272/3/1  271/4/1 
f  285/1/1  286/2/1  274/3/1  273/4/1 
f  287/13/1  288/14/1  289/15/1  290/16/1 
f  288/13/1  291/14/1  292/15/1  289/16/1 
f  293/9/1  294/10/1  295/11/1  296/12/1 
f  297/1/1  298/2/1  282/3/1  281/4/1 
f  299/1/1  300/2/1  284/3/1  283/4/1 
f  301/1/1  302/2/1  303/3/1  304/4/1 
f  305/13/1  306/14/1  307/15/1  308/16/1 
f  309/1/1  310/2/1  286/3/1  285/4/1 
f  311/1/1  312/2/1  298/3/1  297/4/1 
f  313/1/1  314/2/1  300/3/1  299/4/1 
f  315/1/1  316/2/1  301/3/1  317/4/1 
f  316/1/1  318/2/1  302/3/1  301/4/1 
f  318/1/1  319/2/1  320/3/1  302/4/1 
f  321/13/1  322/14/1  306/15/1  305/16/1 
f  323/1/1  324/2/1  310/3/1  309/4/1 
f  324/1/1  325/2/1  326/3/1  310/4/1 
f  325/1/1  327/2/1  328/3/1  326/4/1 
f  327/1/1  329/2/1  330/3/1  328/4/1 
f  329/1/1  331/2/1  332/3/1  330/4/1 
f  331/1/1  333/2/1  334/3/1  332/4/1 
f  333/1/1  335/2/1  336/3/1  334/4/1 
f  335/1/1  337/2/1  338/3/1  336/4/1 
f  339/9/1  340/10/1  341/11/1  342/12/1 
f  343/1/1  344/2/1  312/3/1  311/4/1 
f  345/1/1  346/2/1  314/3/1  313/4/1 
f  347/1/1  348/2/1  315/3/1  349/4/1 
f  348/1/1  350/2/1  316/3/1  315/4/1 
f  350/1/1  351/2/1  318/3/1  316/4/1 
f  351/1/1  352/2/1  319/3/1  318/4/1 
f  352/1/1  353/2/1  354/3/1  319/4/1 
f  355/1/1  356/2/1  321/3/1  357/4/1 
f  356/1/1  358/2/1  322/3/1  321/4/1 
f  358/1/1  359/2/1  360/3/1  322/4/1 
f  359/1/1  361/2/1  362/3/1  360/4/1 
f  361/1/1  363/2/1  364/3/1  362/4/1 
f  363/1/1  365/2/1  366/3/1  364/4/1 
f  365/1/1  367/2/1  323/3/1  366/4/1 
f  367/1/1  368/2/1  324/3/1  323/4/1 
f  369/1/1  370/2/1  344/3/1  343/4/1 
f  371/1/1  372/2/1  346/3/1  345/4/1 
f  373/1/1  374/2/1  347/3/1  375/4/1 
f  374/1/1  376/2/1  348/3/1  347/4/1 
f  376/1/1  377/2/1  350/3/1  348/4/1 
f  377/1/1  378/2/1  351/3/1  350/4/1 
f  378/1/1  379/2/1  352/3/1  351/4/1 
f  379/1/1  380/2/1  353/3/1  352/4/1 
f  380/1/1  381/2/1  382/3/1  353/4/1 
f  383/9/1  384/10/1  385/11/1  386/12/1 
f  387/1/1  388/2/1  370/3/1  369/4/1 
f  389/1/1  390/2/1  372/3/1  371/4/1 
f  391/1/1  392/2/1  373/3/1  393/4/1 
f  392/1/1  394/2/1  374/3/1  373/4/1 
f  394/1/1  395/2/1  376/3/1  374/4/1 
f  395/1/1  396/2/1  377/3/1  376/4/1 
f  396/1/1  397/2/1  378/3/1  377/4/1 
f  397/1/1  398/2/1  379/3/1  378/4/1 
f  398/1/1  399/2/1  380/3/1  379/4/1 
f  399/1/1  400/2/1  381/3/1  380/4/1 
f  400/1/1  401/2/1  402/3/1  381/4/1 
f  403/1/1  404/2/1  388/3/1  387/4/1 
f  405/1/1  406/2/1  390/3/1  389/4/1 
f  407/1/1  408/2/1  391/3/1  409/4/1 
f  408/1/1  410/2/1  392/3/1  391/4/1 
f  410/1/1  411/2/1  394/3/1  392/4/1 
f  411/1/1  412/2/1  395/3/1  394/4/1 
f  412/1/1  413/2/1  396/3/1  395/4/1 
f  413/1/1  414/2/1  397/3/1  396/4/1 
f  414/1/1  415/2/1  398/3/1  397/4/1 
f  415/1/1  416/2/1  399/3/1  398/4/1 
f  416/1/1  417/2/1  400/3/1  399/4/1 
f  417/1/1  418/2/1  401/3/1  400/4/1 
f  418/1/1  419/2/1  420/3/1  401/4/1 
f  421/9/1  422/10/1  423/11/1  424/12/1 
f  425/1/1  426/2/1  404/3/1  403/4/1 
f  427/1/1  428/2/1  406/3/1  405/4/1 
f  428/1/1  429/2/1  430/3/1  406/4/1 
f  429/1/1  431/2/1  432/3/1  430/4/1 
f  431/1/1  433/2/1  434/3/1  432/4/1 
f  433/1/1  435/2/1  436/3/1  434/4/1 
f  435/1/1  437/2/1  407/3/1  436/4/1 
f  437/1/1  438/2/1  408/3/1  407/4/1 
f  438/1/1  439/2/1  410/3/1  408/4/1 
f  439/1/1  440/2/1  411/3/1  410/4/1 
f  440/1/1  441/2/1  412/3/1  411/4/1 
f  441/1/1  442/2/1  413/3/1  412/4/1 
f  442/1/1  443/2/1  414/3/1  413/4/1 
f  443/1/1  444/2/1  415/3/1  414/4/1 
f  444/1/1  445/2/1  416/3/1  415/4/1 
f  445/1/1  446/2/1  417/3/1  416/4/1 
f  446/1/1  447/2/1  418/3/1  417/4/1 
f  447/1/1  448/2/1  419/3/1  418/4/1 
f  448/1/1  449/2/1  450/3/1  419/4/1 
f  449/1/1  451/2/1  452/3/1  450/4/1 
f  451/1/1  453/2/1  454/3/1  452/4/1 
f  453/1/1  455/2/1  456/3/1  454/4/1 
f  455/1/1  457/2/1  458/3/1  456/4/1 
f  457/1/1  459/2/1  460/3/1  458/4/1 
f  459/1/1  461/2/1  462/3/1  460/4/1 
f  461/1/1  463/2/1  464/3/1  462/4/1 
f  463/1/1  465/2/1  466/3/1  464/4/1 
f  465/1/1  467/2/1  468/3/1  466/4/1 
f  467/1/1  469/2/1  470/3/1  468/4/1 
f  469/1/1  471/2/1  472/3/1  470/4/1 
f  471/1/1  473/2/1  474/3/1  472/4/1 
f  473/1/1  475/2/1  476/3/1  474/4/1 
f  475/1/1  477/2/1  478/3/1  476/4/1 
f  477/1/1  479/2/1  480/3/1  478/4/1 
f  479/1/1  481/2/1  482/3/1  480/4/1 
f  481/1/1  483/2/1  484/3/1  482/4/1 
f  483/1/1  485/2/1  486/3/1  484/4/1 
f  485/1/1  487/2/1  488/3/1  486/4/1 
f  487/1/1  489/2/1  490/3/1  488/4/1 
f  489/1/1  491/2/1  492/3/1  490/4/1 
f  491/1/1  493/2/1  421/3/1  492/4/1 
f  493/1/1  494/2/1  422/3/1  421/4/1 
f  494/1/1  495/2/1  496/3/1  422/4/1 
f  495/1/1  497/2/1  498/3/1  496/4/1 
f  497/1/1  499/2/1  500/3/1  498/4/1 
f  499/1/1  501/2/1  502/3/1  500/4/1 
f  501/1/1  503/2/1  504/3/1  502/4/1 
f  503/1/1  505/2/1  506/3/1  504/4/1 
f  505/1/1  507/2/1  508/3/1  506/4/1 
f  507/1/1  509/2/1  510/3/1  508/4/1 
f  509/1/1  511/2/1  512/3/1  510/4/1 
f  511/1/1  513/2/1  514/3/1  512/4/1 
f  513/1/1  515/2/1  516/3/1  514/4/1 
f  515/1/1  517/2/1  518/3/1  516/4/1 
f  517/1/1  519/2/1  520/3/1  518/4/1 
f  519/1/1  521/2/1  522/3/1  520/4/1 
f  521/1/1  523/2/1  524/3/1  522/4/1 
f  523/1/1  525/2/1  425/3/1  524/4/1 
f  525/1/1  526/2/1  426/3/1  425/4/1 
